<svg width="62" height="64" fill="none" xmlns="http://www.w3.org/2000/svg"><g clip-path="url(#clip0)" fill="#151512"><path d="M48.17 9.253L32.422.32c-.88-.492-1.74-.406-2.6.085-9.497 5.428-18.994 10.834-28.47 16.262-.3.17-.58.662-.58 1.004C.75 28.506.73 39.32.793 50.132c0 .705.537 1.71 1.117 2.051 5.114 3.013 10.292 5.898 15.47 8.825.044.022.13 0 .366 0V59.77c0-10.642.021-21.262-.022-31.904 0-1.004.366-1.474 1.182-1.923A12267.74 12267.74 0 0047.419 9.744c.193-.107.408-.256.752-.491z"/><path d="M39.705 64v-1.282c0-7.436.021-14.872-.022-22.33 0-.962.28-1.475 1.139-1.945 6.618-3.697 13.193-7.457 19.789-11.197.322-.171.623-.363 1.01-.598-.172-.15-.28-.278-.43-.364-4.297-2.457-8.616-4.893-12.892-7.393-1.267-.748-2.363-.77-3.674-.022-6.403 3.697-12.849 7.33-19.295 10.962-.709.385-.924.834-.924 1.625.022 7.415.022 14.808 0 22.223 0 1.111.344 1.988 1.332 2.543 4.448 2.522 8.874 5.022 13.322 7.543.15.086.344.129.645.236z"/><path d="M61.75 51.586c-5.179-2.95-10.164-5.77-15.277-8.676v17.35c5.07-2.884 10.055-5.705 15.276-8.675z"/></g><defs><clipPath id="clip0"><path fill="#fff" transform="translate(.75)" d="M0 0h61v64H0z"/></clipPath></defs></svg>