<svg width="25" height="21" fill="none" xmlns="http://www.w3.org/2000/svg"><path d="M22.786 9.043c-.938-3.298-2.006-5.003-2.023-5.033-.061-.075-1.574-1.906-5.236-3.26l-.492 1.326c1.742.645 2.977 1.43 3.655 1.938-2.03-.61-4.447-.984-6.59-.984-2.141 0-4.562.374-6.599.984.684-.508 1.926-1.293 3.675-1.938L8.698.75C5.022 2.104 3.49 3.935 3.428 4.01c-.017.03-1.103 1.735-2.076 5.033C.415 12.22.042 16.705.028 16.884c.081.13 1.95 3.366 7.093 3.366l1.313-1.896a13.747 13.747 0 01-4.117-1.87l.785-1.177a12.377 12.377 0 006.923 2.102c2.48 0 4.882-.727 6.945-2.102l.773 1.176a13.91 13.91 0 01-4.137 1.87L16.9 20.25c5.142 0 7.046-3.237 7.129-3.366-.012-.18-.338-4.663-1.242-7.841zM8.8 12.739H7.392l.013-2.355H8.81l-.012 2.355zm7.908 0h-1.406l.012-2.355h1.406l-.012 2.355z" fill="#151512"/></svg>