<svg width="26" height="25" fill="none" xmlns="http://www.w3.org/2000/svg"><path d="M12.886.857C6.26.857.916 6.202.95 12.795c.028 5.274 3.49 9.748 8.268 11.328.6.11.817-.259.816-.576-.002-.284-.016-1.034-.027-2.03-3.334.721-4.051-1.6-4.051-1.6-.552-1.38-1.342-1.747-1.342-1.747-1.094-.74.078-.726.078-.726 1.204.085 1.843 1.231 1.843 1.231 1.081 1.824 2.817 1.298 3.5.991.103-.77.41-1.297.753-1.596-2.666-.302-5.473-1.326-5.497-5.9-.007-1.303.455-2.368 1.219-3.204-.126-.302-.544-1.516.1-3.158 0 0 1.007-.321 3.307 1.223.955-.265 1.98-.397 3.002-.401 1.019.006 2.047.136 3.007.402 2.282-1.544 3.29-1.223 3.29-1.223.663 1.644.258 2.857.137 3.159.774.835 1.243 1.9 1.25 3.204.024 4.586-2.776 5.595-5.447 5.89.432.37.82 1.098.826 2.211.008 1.596 0 2.884.002 3.274.002.32.22.692.828.574 4.754-1.581 8.166-6.054 8.138-11.326C24.915 6.202 19.514.857 12.886.857z" fill="#151512"/></svg>