<svg width="28" height="32" fill="none" xmlns="http://www.w3.org/2000/svg"><g clip-path="url(#clip0)"><path d="M19.518 11.037c-.053-2.634-1.115-5.165-2.495-7.417.756-.46 1.618-.718 2.49-.55.872.168 1.67.739 2.045 1.535.323.697.307 1.493.254 2.257-.026.341-.058.687-.17 1.011-.073.21-.174.404-.29.587a9.033 9.033 0 01-.486.692c-.45.612-.899 1.273-1.348 1.885z" fill="#999"/><path d="M13.413 5.637c-.798-1.163-1.305-2.017-2.801-2.824-1.496-.806-1.496-.801-1.496-.801S10.85-.581 13.027.126c2.178.707 1.486 5.39 1.042 7.176" fill="#4D4D4D"/><path d="M6.077.943s2.352-.074 5 1.875c1.406 1.037 3.06 3.206 2.992 4.484C14 8.58 10.977 14.777 10.77 18.334c-.207 3.556.01 8.072 1.146 9.15 1.137 1.08 2.025 2.604 4.187 3.505 2.912 1.215 1.025 1.042-2.189-.168-1.22-.46-1.511-.251-3.245-1.922-4.683-4.5-3.24-6.312-3.219-12.635.016-4.588.243-9.842.391-11.607.148-1.698.386-1.923-.644-2.782L6.078.943z" fill="#1A1A1A"/><path d="M14.359 5.265c-.174 1.89-.973 3.64-1.691 5.374-.73 1.765-1.47 3.614-1.972 5.458-.771 2.829-.856 5.815-.523 8.732.116 1 .285 2.027.82 2.886.46.74 1.146 1.305 1.839 1.84 1.495 1.151 3.14 2.267 5.026 2.45-1.945-1.513-3.335-3.671-3.996-6.023-.724-2.578-.528-5.055.745-7.423.344-.634.735-1.241 1.132-1.844 1.152-1.765 2.304-3.53 3.45-5.296.16-.24.323-.492.387-.775.069-.298.02-.607-.032-.911a16.463 16.463 0 00-3.303-7.302C15.252 1.179 13.91 0 12.314 0c.729-.016 1.32.544 1.643 1.194.323.65.38 1.393.413 2.116.031.65.053 1.304-.011 1.954z" fill="gray"/><path d="M26.976 16.16a4.756 4.756 0 00-.56-.98c-.127-.172-.265-.335-.397-.502-.322-.425-.428-.985-.83-1.331-.412-.35-.55-.98-.333-1.477.09-.204.238-.382.328-.582.264-.57.085-1.241-.17-1.817-.353-.807-.845-1.545-1.363-2.263a38.71 38.71 0 00-2.246-2.834c.143.786.074 1.545-.116 2.326-.106.43-.254.848-.444 1.252-.233.492-.529.958-.825 1.42a245.641 245.641 0 01-5.36 7.993c-1.051 1.503-1.416 3.483-1.537 5.306-.122 1.823.232 3.698 1.141 5.29.529.928 1.237 1.745 1.956 2.541.454.503.983 1.278 1.633 1.498.085-.77.222-1.807.328-2.572.18-1.247.587-2.467 1.205-3.567.418-.75.983-1.488 1.802-1.76.555-.183 1.179-.11 1.766-.058.327-.026.66.021.988.021.328 0 .677-.047.94-.235.297-.21.455-.56.508-.917.053-.356.01-.728-.01-1.084-.016-.236-.027-.482.084-.692.201-.387.772-.57.804-1.006.015-.199-.096-.382-.175-.57-.08-.19-.116-.42.021-.572.069-.073.164-.11.228-.183.132-.157.058-.393-.059-.56-.116-.168-.274-.32-.306-.519-.037-.194.058-.393.195-.54.138-.146.312-.246.487-.35.164-.1.338-.23.354-.42a.657.657 0 00-.048-.246 3.34 3.34 0 00-.46-.853" fill="#CCC"/><path d="M14.54 31.047c-.413-.194-11.856-2.158-13.505-19.151C.585 7.271 2.87 2.933 2.87 2.933S4.587.388 6.78 1.048c2.585.775 1.047 10.969.952 12.807 0 0-.576 4.987.782 11.021.988 4.369 6.025 6.17 6.025 6.17z" fill="#151512"/></g><defs><clipPath id="clip0"><path fill="#fff" transform="translate(.977)" d="M0 0h26.047v32H0z"/></clipPath></defs></svg>