<svg width="25" height="21" fill="none" xmlns="http://www.w3.org/2000/svg"><path d="M24.887 3.045c-.9.39-1.83.66-2.82.78a4.8 4.8 0 002.16-2.73c-.96.57-2.01.96-3.12 1.2a4.923 4.923 0 00-8.52 3.36c0 .39.03.75.12 1.11-4.08-.18-7.68-2.16-10.11-5.13-1.74 3.12.21 5.7 1.5 6.57-.78 0-1.56-.24-2.22-.6 0 2.43 1.71 4.44 3.93 4.89-.48.15-1.56.24-2.22.09.63 1.95 2.46 3.39 4.59 3.42-1.68 1.32-4.14 2.37-7.29 2.04 2.19 1.41 4.77 2.22 7.56 2.22 9.06 0 13.98-7.5 13.98-13.98 0-.21 0-.42-.03-.63 1.02-.75 1.86-1.62 2.49-2.61z" fill="#151512"/></svg>