<svg width="65" height="64" fill="none" xmlns="http://www.w3.org/2000/svg"><g clip-path="url(#clip0)" fill="#151512"><path d="M4.401 46.01c-.471 0-.942-.244-1.206-.676-.396-.676-.189-1.54.49-1.934.094-.057 8.292-4.996 14.812-11.343-6.784-6.61-14.68-11.362-14.774-11.418-.679-.394-.886-1.258-.49-1.934.395-.676 1.262-.883 1.94-.488.359.225 9.084 5.446 16.34 12.845a1.426 1.426 0 010 1.971c-6.917 7.08-15.981 12.545-16.377 12.79a1.64 1.64 0 01-.735.187zm56.236 0c-.245 0-.49-.057-.735-.207-.377-.225-9.461-5.69-16.377-12.789a1.426 1.426 0 010-1.972c7.236-7.399 15.962-12.62 16.339-12.845.678-.394 1.545-.187 1.941.489.396.676.188 1.54-.49 1.934-.075.056-7.99 4.789-14.775 11.418 6.52 6.347 14.737 11.305 14.813 11.343a1.42 1.42 0 01.49 1.934 1.4 1.4 0 01-1.206.695zM32.481 21.446c-.358 0-.716-.131-.98-.394-7.105-6.892-12.589-15.925-12.834-16.32a1.42 1.42 0 01.49-1.933 1.422 1.422 0 011.941.488c.057.094 5.013 8.263 11.383 14.76 6.634-6.76 11.402-14.629 11.458-14.723.396-.676 1.263-.882 1.941-.488a1.42 1.42 0 01.49 1.934c-.226.376-5.465 9.052-12.89 16.282-.283.244-.64.394-.999.394zM19.892 61.428c-.245 0-.49-.057-.735-.207a1.42 1.42 0 01-.49-1.934c.226-.376 5.73-9.428 12.834-16.32a1.438 1.438 0 011.979 0c7.425 7.212 12.664 15.907 12.89 16.282.396.676.189 1.54-.49 1.934-.66.395-1.545.188-1.94-.488-.057-.075-4.806-7.962-11.459-14.723-6.37 6.498-11.345 14.685-11.383 14.76a1.4 1.4 0 01-1.206.696z"/><path d="M63.03 29.765c-.904 0-10.817-.056-20.58-2.591a1.417 1.417 0 01-1.017-1.69c2.243-9.616 7.18-18.987 7.406-19.362.358-.695 1.225-.94 1.904-.582.697.357.961 1.22.584 1.896-.038.094-4.504 8.545-6.803 17.352 9.215 2.179 18.374 2.16 18.563 2.179.772 0 1.413.62 1.413 1.408 0 .79-.622 1.409-1.413 1.409-.02-.019-.038-.019-.057-.019zM14.992 58.648a1.38 1.38 0 01-.66-.169c-.697-.357-.942-1.22-.584-1.897.038-.075 4.354-8.225 6.747-17.37-8.838-2.066-18.393-2.104-18.563-2.104C1.141 37.108.5 36.47.5 35.7c0-.77.622-1.409 1.413-1.409.472-.056 11.063 0 20.655 2.517a1.417 1.417 0 011.018 1.69c-2.375 10.066-7.124 19.023-7.331 19.399a1.46 1.46 0 01-1.263.751z"/><path d="M38.53 23.042a1.407 1.407 0 01-1.356-1.033C34.498 12.507 34.31 1.934 34.31 1.484c-.02-.77.603-1.409 1.394-1.428h.019c.773 0 1.395.62 1.413 1.39 0 .094.17 9.652 2.413 18.46 9.14-2.516 17.243-6.948 17.319-7.005a1.421 1.421 0 011.922.545 1.41 1.41 0 01-.547 1.915c-.376.207-9.29 5.09-19.354 7.625a1.287 1.287 0 01-.358.056zm-9.177 40.883c-.773 0-1.395-.62-1.414-1.39 0-.094-.15-9.296-2.488-18.46-8.8 2.441-17.206 7.023-17.281 7.06a1.421 1.421 0 01-1.922-.544 1.411 1.411 0 01.546-1.915c.396-.207 9.706-5.296 19.317-7.681a1.396 1.396 0 011.696.995c2.77 9.953 2.94 20.094 2.94 20.526.019.751-.603 1.39-1.394 1.409zm-2.657-41.014a1.33 1.33 0 01-.377-.056c-9.555-2.63-18.752-7.906-19.129-8.132a1.41 1.41 0 111.413-2.441c.095.056 8.387 4.826 17.113 7.474 2.544-9.108 2.902-18.29 2.92-18.404.038-.77.717-1.408 1.47-1.352a1.399 1.399 0 011.358 1.465c-.02.413-.415 10.554-3.43 20.45a1.39 1.39 0 01-1.338.996zM34.988 64h-.057c-.772-.038-1.394-.676-1.357-1.465.02-.45.453-11.005 3.355-20.45a1.414 1.414 0 011.734-.94c9.988 2.76 18.789 7.85 19.166 8.075.678.395.904 1.259.509 1.935a1.42 1.42 0 01-1.941.507c-.076-.056-8.066-4.657-17.15-7.4-2.431 8.752-2.827 18.31-2.846 18.404-.019.733-.66 1.334-1.413 1.334z"/><path d="M1.97 29.634h-.075A1.405 1.405 0 01.5 28.225c0-.77.622-1.37 1.413-1.408.02 0 9.687 0 18.582-2.047-2.355-9.165-6.652-17.315-6.69-17.39a1.403 1.403 0 01.584-1.915 1.419 1.419 0 011.904.582c.207.375 4.937 9.352 7.274 19.418a1.427 1.427 0 01-1.018 1.69c-9.29 2.422-19.561 2.479-20.579 2.479zm48.02 29.052c-.51 0-1-.282-1.245-.752-.207-.394-5.126-9.765-7.35-19.38a1.398 1.398 0 011.018-1.671c10.045-2.573 20.24-2.535 20.636-2.554.773 0 1.414.638 1.414 1.408 0 .77-.641 1.409-1.414 1.409h-.038c-.603 0-9.573.037-18.544 2.122 2.28 8.789 6.728 17.277 6.766 17.352a1.41 1.41 0 01-.584 1.897 1.378 1.378 0 01-.66.169z"/></g><defs><clipPath id="clip0"><path fill="#fff" transform="translate(.5)" d="M0 0h64v64H0z"/></clipPath></defs></svg>